<?xml version="1.0" standalone="no"?><!DOCTYPE svg PUBLIC "-//W3C//DTD SVG 1.1//EN" "http://www.w3.org/Graphics/SVG/1.1/DTD/svg11.dtd"><svg t="1764920440377" class="icon" viewBox="0 0 1028 1024" version="1.1" xmlns="http://www.w3.org/2000/svg" p-id="13761" xmlns:xlink="http://www.w3.org/1999/xlink" width="200.78125" height="200"><path d="M317.556719 984.260584a511.171172 511.171172 0 1 0 391.233478-944.521168 511.171172 511.171172 0 1 0-391.233478 944.521168Z" fill="#333333" p-id="13762"></path><path d="M801.620048 437.149935l-43.449549-0.365122c-20.446847 0-36.877349-16.430502-36.877349-36.877349 0-109.53668-88.724711-198.26139-198.261391-198.26139h-107.345946c-111.362291 0-201.547491 90.1852-201.547491 201.547491v217.247748c0 111.362291 90.1852 201.547491 201.547491 201.547491h217.247748c111.362291 0 201.547491-90.1852 201.547491-201.547491v-150.430374c0-17.890991-14.970013-32.861004-32.861004-32.861004z m-426.462806-37.242471c0-20.811969 16.795624-37.607593 37.607593-37.607593h110.997169c20.811969 0 37.607593 16.795624 37.607593 37.607593 0 20.811969-16.795624 37.607593-37.607593 37.607594h-110.997169c-20.811969 0-37.607593-17.160747-37.607593-37.607594z m258.871686 260.697298h-221.264093c-20.811969 0-37.607593-16.795624-37.607593-37.607593S391.952866 585.024453 412.764835 585.024453h221.264093c20.811969 0 37.607593 16.795624 37.607594 37.607594s-16.795624 37.972716-37.607594 37.972715z" fill="#F1F1F1" p-id="13763"></path></svg>