<?xml version="1.0" standalone="no"?><!DOCTYPE svg PUBLIC "-//W3C//DTD SVG 1.1//EN" "http://www.w3.org/Graphics/SVG/1.1/DTD/svg11.dtd"><svg t="1764921588883" class="icon" viewBox="0 0 1024 1024" version="1.1" xmlns="http://www.w3.org/2000/svg" p-id="28016" xmlns:xlink="http://www.w3.org/1999/xlink" width="200" height="200"><path d="M503.312 160.128c-366.928 0-546.24 451.2-279.664 704.096l52.72-56.096c-63.568-60.384-103.472-145.536-103.472-240 0-182.56 148.224-331.104 330.48-331.104 182.224 0 330.496 148.528 330.496 331.104 0 87.6-33.552 173.76-103.376 240.112l52.72 56.112c265.696-252.016 88.16-704.224-279.904-704.224zM384 800h240v-80H384v80z m137.216-302.048C474.336 486.4 432 522.16 432 567.648c0 39.92 32.736 72 72 72 39.472 0 72-32.272 72-72 0-3.584-0.544-7.008-1.056-10.448l131.968-119.968-53.808-59.184-131.888 119.904z" fill="#565D64" p-id="28017"></path></svg>