<?xml version="1.0" standalone="no"?><!DOCTYPE svg PUBLIC "-//W3C//DTD SVG 1.1//EN" "http://www.w3.org/Graphics/SVG/1.1/DTD/svg11.dtd"><svg t="1764921290183" class="icon" viewBox="0 0 1024 1024" version="1.1" xmlns="http://www.w3.org/2000/svg" p-id="23104" xmlns:xlink="http://www.w3.org/1999/xlink" width="200" height="200"><path d="M704 128c-74.24 0-145.493333 34.56-192 88.96-46.506667-54.4-117.76-88.96-192-88.96-131.626667 0-234.666667 103.04-234.666667 234.666667 0 161.066667 145.066667 292.693333 364.8 492.16l61.866667 56.106667 61.866667-56.106667c219.733333-199.466667 364.8-331.093333 364.8-492.16 0-131.626667-103.04-234.666667-234.666667-234.666667zM516.48 791.68l-4.48 4.053333-4.48-4.053333c-202.88-184.106667-336.853333-305.706667-336.853333-429.013333 0-85.12 64.213333-149.333333 149.333333-149.333333 65.706667 0 129.706667 42.453333 152.106667 100.693333l79.573333 0c22.613333-58.24 86.613333-100.693333 152.32-100.693333 85.12 0 149.333333 64.213333 149.333333 149.333333 0 123.306667-133.973333 244.906667-336.853333 429.013333z" fill="#444444" p-id="23105"></path></svg>