<?xml version="1.0" standalone="no"?><!DOCTYPE svg PUBLIC "-//W3C//DTD SVG 1.1//EN" "http://www.w3.org/Graphics/SVG/1.1/DTD/svg11.dtd"><svg t="1764921674225" class="icon" viewBox="0 0 1062 1024" version="1.1" xmlns="http://www.w3.org/2000/svg" p-id="30983" xmlns:xlink="http://www.w3.org/1999/xlink" width="207.421875" height="200"><path d="M760.20364 600.168136a135.029153 135.029153 0 1 0 129.822373 135.029152 158.286102 158.286102 0 0 0-36.794577-96.498983 144.748475 144.748475 0 0 0-93.027796-38.530169z m0 192.997966a57.968814 57.968814 0 0 1 0-115.590509 74.630508 74.630508 0 0 1 40.265762 15.273221 52.762034 52.762034 0 0 1 14.578983 42.348474 57.968814 57.968814 0 0 1-54.844745 55.886102z m0 0" p-id="30984"></path><path d="M1025.402284 667.509153a110.383729 110.383729 0 0 1-67.688136-51.026441 108.995254 108.995254 0 0 1-10.413559-84.002712 24.298305 24.298305 0 0 0-4.165424-15.27322 257.562034 257.562034 0 0 0-88.862373-54.150509 22.215593 22.215593 0 0 0-15.27322 3.818305 98.234576 98.234576 0 0 1-77.754576 34.711865 104.135593 104.135593 0 0 1-78.101695-34.711865 20.827119 20.827119 0 0 0-14.926102-3.818305 262.074576 262.074576 0 0 0-89.209492 54.150509 11.454915 11.454915 0 0 0-3.471186 15.27322 113.507797 113.507797 0 0 1-11.454915 85.044068 95.457627 95.457627 0 0 1-66.64678 49.985085c-3.471186 0-7.289492 4.165424-11.107797 11.454915a270.752542 270.752542 0 0 0 0 108.301017c0 3.818305 3.818305 7.63661 11.107797 11.454915a100.664407 100.664407 0 0 1 66.64678 50.679322 114.549153 114.549153 0 0 1 11.454915 85.391186 24.298305 24.298305 0 0 0 3.471186 15.273221 266.934237 266.934237 0 0 0 89.209492 53.80339h4.165424a12.496271 12.496271 0 0 0 10.760678-3.471187 98.581695 98.581695 0 0 1 77.060339-34.711864 104.135593 104.135593 0 0 1 80.184406 34.711864c3.818305 3.818305 7.63661 3.818305 15.273221 3.818305a275.612203 275.612203 0 0 0 88.862373-54.150508c3.818305-4.165424 7.63661-7.63661 3.818305-15.273221a104.135593 104.135593 0 0 1 72.894915-134.334915c4.165424 0 7.63661-4.165424 11.107797-11.802034a257.214915 257.214915 0 0 0 0-107.953898 21.521356 21.521356 0 0 0-6.942373-13.190508z m-64.911187 96.498983a117.326102 117.326102 0 0 0-63.175593 50.679322 97.19322 97.19322 0 0 0-11.454915 77.060339 124.268475 124.268475 0 0 1-55.538983 30.893559 104.135593 104.135593 0 0 0-74.28339-30.893559 119.061695 119.061695 0 0 0-74.630509 30.893559 396.062373 396.062373 0 0 1-56.580339-31.587797 94.416271 94.416271 0 0 0-10.06644-76.366101 117.326102 117.326102 0 0 0-63.175593-49.985085 189.179661 189.179661 0 0 1 0-65.605424 115.937627 115.937627 0 0 0 64.564067-49.985085 96.498983 96.498983 0 0 0 11.454916-77.407457 131.210847 131.210847 0 0 1 55.538983-30.89356 101.705763 101.705763 0 0 0 74.283389 30.89356 115.24339 115.24339 0 0 0 75.671865-31.587797 434.592542 434.592542 0 0 1 55.538983 30.893559 94.76339 94.76339 0 0 0 11.107797 77.407458 118.714576 118.714576 0 0 0 61.787118 49.985085 208.271186 208.271186 0 0 1 0 65.605424zM111.786013 810.522034h73.936271a228.751186 228.751186 0 0 1 222.850169-231.875254 213.130847 213.130847 0 0 1 96.846102 23.256949 392.244068 392.244068 0 0 1 47.902373-61.787119 77.754576 77.754576 0 0 1-18.397288-11.454915 193.345085 193.345085 0 0 0 65.258305-142.318644 185.708475 185.708475 0 1 0-371.416949 0 180.848814 180.848814 0 0 0 63.522711 142.318644 307.894237 307.894237 0 0 0-180.501694 281.860339z m296.78644-540.11661A111.425085 111.425085 0 0 1 520.691775 386.343051a111.772203 111.772203 0 1 1-222.850169 0 111.425085 111.425085 0 0 1 30.893559-81.572882 113.160678 113.160678 0 0 1 80.184407-34.711864z m0 0" p-id="30985"></path><path d="M965.697877 0H74.297199A76.366102 76.366102 0 0 0 0.013809 77.754576v771.644746a76.018983 76.018983 0 0 0 74.28339 77.407458h389.814237a490.478644 490.478644 0 0 1-12.84339-77.407458H111.786013a39.918644 39.918644 0 0 1-37.488814-39.918644v-694.237288a40.265763 40.265763 0 0 1 37.488814-39.224407h816.770169a40.265763 40.265763 0 0 1 37.141695 39.918644v339.482034A302.340339 302.340339 0 0 1 1041.369741 502.280678V77.754576A76.018983 76.018983 0 0 0 965.697877 0z m0 0" p-id="30986"></path><path d="M705.358894 270.405424h185.708474a34.711864 34.711864 0 0 0 27.769492-11.454916 34.711864 34.711864 0 0 0 9.719322-28.463728 36.794576 36.794576 0 0 0-9.372203-28.810848 34.711864 34.711864 0 0 0-28.116611-11.802034h-185.708474a34.711864 34.711864 0 0 0-36.794576 39.918644 37.141695 37.141695 0 0 0 9.372203 28.463729 34.711864 34.711864 0 0 0 27.422373 11.454915z m0 154.120678h111.772203a34.711864 34.711864 0 0 0 27.769492-11.454916 34.711864 34.711864 0 0 0 9.372203-28.463728 34.711864 34.711864 0 0 0-9.372203-28.463729 34.711864 34.711864 0 0 0-27.769492-11.454915h-111.772203a34.711864 34.711864 0 0 0-27.422373 11.454915 37.141695 37.141695 0 0 0-9.372203 28.463729 34.711864 34.711864 0 0 0 9.372203 28.463728 34.711864 34.711864 0 0 0 27.422373 11.454916z m0 0" p-id="30987"></path></svg>